<?xml version="1.0" encoding="UTF-8"?>
<svg width="132px" height="132px" viewBox="0 0 132 132" version="1.1" xmlns="http://www.w3.org/2000/svg" xmlns:xlink="http://www.w3.org/1999/xlink">
    <!-- Generator: Sketch 53.2 (72643) - https://sketchapp.com -->
    <title>Group 8</title>
    <desc>Created with Sketch.</desc>
    <g id="Page-1" stroke="none" stroke-width="1" fill="none" fill-rule="evenodd">
        <g id="Group-8">
            <rect id="Rectangle" fill="#000000" x="0" y="0" width="132" height="132"></rect>
            <g id="Group-2-Copy-6" transform="translate(31.000000, 32.000000)">
                <path d="M51.7384736,0.483068743 C51.077798,1.1271604 36,15.5822446 36,33.9731456 C36,52.3641501 51.077798,66.8193377 51.7384736,67.4633259 C52.4594078,68.1788914 53.4805071,68.1788914 54.2615264,67.4633259 C54.9222888,66.8193377 70,52.3641501 70,33.9731456 C70,15.5822446 54.8622037,1.1271604 54.2615264,0.483068743 C53.540679,-0.161022914 52.4594078,-0.161022914 51.7384736,0.483068743" id="Fill-1-Copy" fill="#DBEED8"></path>
                <path d="M27.9571518,49.0017783 L27.9571518,9.58837422 C27.9571518,4.29284356 23.4990922,0 18,0 C12.5009078,0 8.04284818,4.29284356 8.04284818,9.58837422 L8.04284818,49.0017783 C3.4598092,49.8614151 0,53.74647 0,58.411435 C0,63.7071564 4.45786155,68 9.95695375,68 C13.2618757,68 16.1888885,66.4483813 18,64.0617304 C19.8111115,66.4483813 22.7381243,68 26.0428482,68 C31.5421384,68 36,63.7071564 36,58.411435 C36,53.74647 32.5401908,49.8614151 27.9571518,49.0017783" id="Fill-4-Copy" fill="#FFFFFF"></path>
            </g>
        </g>
    </g>
</svg>