<?xml version="1.0" encoding="UTF-8"?>
<svg width="375px" height="316px" viewBox="0 0 375 316" version="1.1" xmlns="http://www.w3.org/2000/svg" xmlns:xlink="http://www.w3.org/1999/xlink">
    <!-- Generator: Sketch 53.2 (72643) - https://sketchapp.com -->
    <title>Group 3</title>
    <desc>Created with Sketch.</desc>
    <g id="Page-1" stroke="none" stroke-width="1" fill="none" fill-rule="evenodd">
        <g id="MK-Opener-040619" transform="translate(0.000000, -156.000000)">
            <g id="Group-3" transform="translate(-77.000000, 114.000000)">
                <path d="M335.810549,59.5595163 C332.552155,62.8649712 258.190333,137.048491 258.148,231.388195 C258.105666,325.728429 332.400941,399.845772 335.656371,403.147774 C339.20869,406.816811 344.242371,406.814552 348.094185,403.142192 C351.353007,399.837268 425.714402,325.653218 425.756735,231.312983 C425.799068,136.973279 351.208021,62.8565997 348.248364,59.553935 C344.696307,56.2515362 339.365999,56.2539281 335.810549,59.5595163" id="Fill-1" fill="#DBEED8" transform="translate(341.952367, 231.488369) rotate(45.000000) translate(-341.952367, -231.488369) "></path>
                <path d="M202.681659,225.373981 L202.604402,53.2041757 C202.594021,30.071678 183.459819,11.3106418 159.867836,11.3000554 C136.275853,11.2894689 117.15848,30.0333404 117.168861,53.1658382 L117.246118,225.335643 C97.5858348,229.081977 82.7503166,246.046425 82.7594608,266.424419 C82.7698415,289.55775 101.903194,308.318786 125.495177,308.329372 C139.67382,308.335734 152.22813,301.563424 159.993409,291.14129 C167.768045,301.570397 180.328439,308.353977 194.506231,308.360339 C218.099064,308.370926 237.215587,289.627054 237.205206,266.493723 C237.196062,246.115729 222.345313,229.137961 202.681659,225.373981" id="Fill-4" fill="#FEFEFE" transform="translate(159.982334, 159.830197) rotate(-45.000000) translate(-159.982334, -159.830197) "></path>
            </g>
        </g>
    </g>
</svg>